<?xml version="1.0" standalone="no"?>
<!DOCTYPE svg PUBLIC "-//W3C//DTD SVG 20010904//EN"
 "http://www.w3.org/TR/2001/REC-SVG-20010904/DTD/svg10.dtd">
<svg version="1.0" xmlns="http://www.w3.org/2000/svg"
 width="700.000000pt" height="700.000000pt" viewBox="0 0 700.000000 700.000000"
 preserveAspectRatio="xMidYMid meet">
<metadata>
Created by potrace 1.11, written by Peter Selinger 2001-2013
</metadata>
<g transform="translate(0.000000,700.000000) scale(0.100000,-0.100000)"
fill="#000000" stroke="none">
<path d="M2900 6773 c-25 -8 -58 -27 -73 -41 -52 -48 -61 -78 -62 -189 0 -97
1 -103 30 -145 51 -71 95 -89 230 -92 63 -2 118 -5 121 -8 5 -5 7 -123 5 -255
l-1 -42 -57 -7 c-32 -3 -67 -8 -78 -10 -24 -5 -85 -16 -105 -19 -279 -50 -670
-201 -938 -364 -95 -57 -239 -154 -270 -182 -8 -6 -48 -39 -90 -72 -114 -89
-355 -336 -455 -466 -214 -277 -361 -546 -473 -865 -23 -67 -80 -269 -89 -319
-3 -12 -9 -42 -15 -67 -59 -261 -72 -676 -29 -985 38 -278 107 -525 221 -788
207 -480 546 -903 973 -1214 55 -40 105 -77 112 -83 7 -5 14 -10 16 -10 2 0
53 -30 113 -66 131 -79 299 -161 440 -214 97 -37 305 -104 356 -114 13 -3 64
-14 114 -25 420 -92 976 -76 1379 40 99 28 255 79 290 94 17 7 73 31 125 53
250 105 568 305 764 481 57 50 255 249 291 291 310 360 532 787 644 1240 16
63 32 131 35 150 15 86 37 248 43 318 13 152 6 533 -12 617 -3 11 -7 38 -9 60
-2 22 -7 51 -10 65 -3 14 -7 39 -10 55 -13 91 -63 281 -112 422 -216 636 -666
1198 -1248 1561 -109 68 -301 169 -386 202 -30 12 -68 28 -85 35 -104 47 -377
127 -515 151 -14 2 -47 9 -75 14 -27 5 -74 12 -102 15 -40 5 -53 11 -54 23 -1
21 -1 228 0 262 l1 25 118 1 c99 1 123 4 159 22 82 42 113 110 109 234 -5 118
-44 180 -132 212 -63 22 -1138 21 -1204 -1z m800 -1297 c30 -3 82 -8 115 -12
111 -11 320 -58 455 -104 256 -85 517 -225 740 -399 101 -78 304 -278 384
-378 206 -258 369 -569 447 -853 7 -25 14 -49 15 -55 11 -35 53 -244 58 -288
4 -30 9 -65 12 -78 17 -75 9 -487 -11 -597 -2 -14 -7 -46 -11 -71 -10 -74 -52
-250 -81 -336 -168 -514 -457 -909 -918 -1253 -186 -139 -597 -329 -795 -367
-8 -2 -33 -8 -55 -13 -43 -12 -67 -16 -160 -32 -33 -5 -76 -12 -95 -16 -76
-13 -485 -12 -595 2 -389 49 -730 176 -1058 394 -72 48 -141 96 -152 106 -11
11 -43 37 -70 59 -55 44 -247 234 -283 280 -157 198 -245 334 -331 509 -79
162 -161 388 -186 514 -2 9 -6 28 -9 42 -7 29 -14 70 -21 120 -3 19 -7 44 -10
55 -26 125 -26 526 -1 675 3 14 7 41 10 60 74 490 314 957 681 1326 217 218
456 384 732 507 121 55 319 123 413 142 8 2 35 8 60 13 25 6 62 13 84 16 21 4
41 8 45 10 7 5 74 12 191 22 47 3 86 7 87 8 5 4 264 -2 313 -8z"/>
<path d="M3370 5030 l0 -260 130 0 130 0 0 260 0 260 -130 0 -130 0 0 -260z"/>
<path d="M2425 5020 c-38 -17 -187 -115 -187 -123 -1 -12 256 -437 263 -437 9
0 192 110 206 124 9 8 -19 62 -118 226 -71 118 -132 216 -136 217 -5 1 -17 -2
-28 -7z"/>
<path d="M4501 4950 c-28 -45 -51 -82 -51 -85 0 -2 -27 -47 -60 -100 -33 -53
-60 -98 -60 -101 0 -3 -12 -21 -26 -39 l-25 -34 43 -28 c24 -15 52 -33 63 -39
11 -6 43 -25 71 -41 l51 -31 18 32 c10 17 69 115 132 218 110 183 123 208 104
208 -6 0 -53 27 -105 60 -53 33 -97 60 -100 60 -2 0 -27 -36 -55 -80z"/>
<path d="M1585 4218 c-33 -56 -61 -107 -63 -113 -2 -9 398 -260 427 -267 11
-2 141 195 141 212 0 3 -24 19 -53 36 -28 17 -127 77 -220 132 -92 56 -168
102 -170 102 -1 0 -29 -46 -62 -102z"/>
<path d="M4910 4014 c-333 -129 -614 -238 -625 -243 -11 -5 -76 -31 -145 -57
-69 -26 -128 -50 -132 -54 -4 -3 47 -96 114 -205 66 -110 132 -219 145 -242
14 -24 27 -43 30 -43 6 0 94 73 128 105 11 11 54 49 94 85 41 36 79 70 85 75
6 6 42 37 81 70 38 33 76 67 85 75 9 8 49 44 90 80 41 36 117 103 170 150 53
47 127 112 165 145 37 33 80 71 94 84 14 12 57 51 96 85 104 92 141 125 135
125 -3 0 -277 -106 -610 -235z"/>
<path d="M3437 3754 c-1 -1 -23 -5 -49 -8 -273 -37 -522 -273 -581 -551 -19
-87 -15 -248 7 -330 18 -66 73 -186 102 -224 76 -99 197 -200 284 -238 34 -15
93 -37 105 -40 6 -1 35 -7 65 -13 83 -17 216 -13 304 10 229 58 428 244 498
463 29 91 33 121 32 242 -1 96 -5 122 -33 204 -81 240 -282 419 -527 471 -44
10 -200 20 -207 14z"/>
<path d="M1259 3168 c-3 -20 -5 -234 -2 -243 2 -6 95 -9 256 -9 138 1 255 2
258 3 3 1 5 58 5 129 l-1 127 -257 1 c-142 0 -259 -3 -259 -8z"/>
<path d="M5229 3176 c-7 -3 -5 -243 1 -251 5 -6 104 -10 261 -10 l254 1 0 127
c0 70 -2 128 -5 129 -5 1 -509 5 -511 4z"/>
<path d="M1865 2214 c-50 -30 -97 -59 -105 -64 -8 -5 -68 -41 -132 -80 l-117
-70 52 -89 c29 -48 59 -98 68 -111 l15 -23 90 53 c49 29 112 68 141 86 28 19
54 34 58 34 4 0 21 10 38 23 18 12 48 30 67 41 19 10 39 21 43 25 5 6 -98 192
-127 228 -1 1 -42 -23 -91 -53z"/>
<path d="M5026 2238 c-61 -98 -116 -189 -116 -192 0 -4 88 -66 94 -66 1 0 80
-47 176 -104 l173 -105 63 105 c35 58 64 109 64 114 0 7 -424 270 -436 270 -2
0 -10 -10 -18 -22z"/>
<path d="M2360 1418 c-152 -252 -149 -218 -25 -290 39 -23 80 -48 92 -55 22
-15 26 -10 248 363 l43 71 -82 49 c-44 27 -95 56 -112 65 l-31 17 -133 -220z"/>
<path d="M4395 1574 c-49 -30 -96 -59 -104 -63 -12 -7 -7 -21 25 -73 58 -95
57 -93 138 -228 42 -69 80 -131 85 -138 6 -11 32 0 115 48 58 34 108 65 110
69 6 10 -253 436 -266 438 -7 1 -53 -23 -103 -53z"/>
<path d="M3374 1321 c-2 -2 -4 -121 -4 -263 l0 -258 130 0 130 0 0 260 c0 143
-3 260 -7 261 -28 3 -245 3 -249 0z"/>
</g>
</svg>
